# xmcd
#
# Track frame offsets:
#	150
#	10805
#	24126
#	32120
#	43527
#	53439
#	61760
#	73980
#	83134
#	92259
#	102299
#	116247
#	125450
#	137598
#	146838
#	161188
#
# Disc length: 2283 seconds
# Revision: 0
# Processed by: cddbd v1.5.2PL0 Copyright (c) Steve Scherf et al.
# Submitted via: dBpowerAMP V12.0
#
DISCID=d008e910
DTITLE=Various Artist - The Bluegrass Hall Of Fame
DYEAR=1900
DGENRE=Bluegrass
TTITLE0=01 - Beautiful Blue Eyes
TTITLE1=02 - Rank Stranger
TTITLE2=03 - String's Mountain Dew
TTITLE3=04 - Foggy Mountain Breakdown
TTITLE4=05 - Let Me Whisper
TTITLE5=06 - Fallen Leaves
TTITLE6=07 - Run Mountain
TTITLE7=08 - My Gal's A High Born Lady
TTITLE8=09 - Walking In My Sleep
TTITLE9=10 - Home Sweet Home
TTITLE10=11. - Sunrise
TTITLE11=12 - The Moon Saw Me Crying
TTITLE12=13 - Old Rattler
TTITLE13=14 - Hills Of Georgia
TTITLE14=15 - Tramp On The Street
TTITLE15=16 - Windy Mountain
EXTD=
EXTT0=
EXTT1=
EXTT2=
EXTT3=
EXTT4=
EXTT5=
EXTT6=
EXTT7=
EXTT8=
EXTT9=
EXTT10=
EXTT11=
EXTT12=
EXTT13=
EXTT14=
EXTT15=
PLAYORDER=
